<?xml version="1.0" standalone="no"?>
<!DOCTYPE svg PUBLIC "-//W3C//DTD SVG 20010904//EN"
 "http://www.w3.org/TR/2001/REC-SVG-20010904/DTD/svg10.dtd">
<svg version="1.0" xmlns="http://www.w3.org/2000/svg"
 width="315.000000pt" height="315.000000pt" viewBox="0 0 315.000000 315.000000"
 preserveAspectRatio="xMidYMid meet">
<metadata>
Created by potrace 1.11, written by Peter Selinger 2001-2013
</metadata>
<g transform="translate(0.000000,315.000000) scale(0.100000,-0.100000)"
fill="#000000" stroke="none">
<path d="M1426 3140 c-446 -56 -826 -319 -1014 -702 -113 -229 -154 -469 -118
-678 10 -52 25 -160 36 -240 10 -80 36 -221 58 -315 22 -93 48 -207 56 -253
l16 -83 -25 -37 c-13 -20 -27 -50 -31 -66 -6 -26 -5 -28 16 -21 22 7 23 6 17
-37 -3 -24 -9 -52 -13 -62 -5 -13 -2 -17 12 -14 17 3 20 -10 32 -167 7 -93 17
-174 21 -178 10 -10 74 1 96 17 13 9 14 22 5 91 -14 115 -20 135 -37 135 -11
0 -14 7 -10 27 2 16 11 61 18 101 13 74 6 111 -20 104 -17 -3 -13 14 18 76 36
72 66 100 111 104 l35 3 -58 45 c-99 76 -157 181 -226 405 -91 295 -113 582
-61 778 29 111 98 263 164 359 183 273 443 445 785 520 138 31 380 31 502 1
424 -106 777 -417 903 -795 42 -126 58 -224 57 -363 0 -144 -14 -240 -66 -447
-44 -173 -77 -264 -123 -339 -20 -34 -47 -78 -60 -100 l-23 -39 29 0 c27 0 30
-3 35 -43 3 -23 15 -73 25 -112 11 -40 23 -122 26 -190 4 -66 9 -139 12 -163
l5 -42 30 17 29 17 0 219 c0 120 5 261 10 315 20 182 71 457 118 632 46 171
47 178 46 315 -2 121 -6 156 -32 257 -122 470 -505 829 -992 928 -114 23 -312
33 -414 20z"/>
<path d="M2238 2711 c-32 -29 -33 -31 -33 -113 0 -74 4 -91 33 -150 55 -112
163 -191 237 -172 14 3 37 20 51 37 25 29 26 36 22 112 -5 97 -36 166 -106
237 -81 84 -148 100 -204 49z m61 -75 c20 -21 50 -113 51 -153 0 -19 -29 -43
-46 -36 -20 7 -61 80 -69 123 -7 40 8 90 28 90 7 0 24 -11 36 -24z"/>
<path d="M1539 2681 c-96 -38 -158 -108 -255 -286 -26 -49 -84 -137 -128 -195
-167 -222 -276 -337 -409 -432 -109 -77 -137 -113 -137 -173 1 -96 70 -172
253 -279 63 -36 172 -111 243 -166 71 -56 163 -118 203 -138 66 -32 84 -37
145 -37 47 1 102 10 161 27 140 42 177 44 270 14 44 -14 95 -26 114 -26 69 0
132 69 190 209 48 115 111 200 203 278 105 87 142 152 141 246 -2 123 -38 174
-313 447 -129 128 -250 258 -298 321 -45 59 -98 121 -119 139 -78 69 -172 87
-264 51z m188 -42 c57 -28 115 -96 165 -197 39 -78 42 -90 49 -196 7 -118 19
-159 46 -154 22 4 52 47 59 87 6 31 5 33 -15 26 -24 -7 -29 13 -9 33 31 31 57
13 230 -164 193 -196 237 -252 245 -311 6 -48 -24 -115 -84 -183 -86 -98 -192
-255 -268 -397 -38 -71 -40 -73 -78 -73 -21 0 -79 10 -130 22 l-91 21 40 35
c39 35 164 119 306 206 100 61 146 116 212 251 72 147 70 142 34 141 -20 -1
-43 -13 -69 -38 -55 -52 -116 -68 -264 -68 -76 0 -125 4 -132 11 -8 8 -16 2
-29 -22 -9 -19 -47 -79 -84 -134 -37 -55 -83 -125 -103 -156 -20 -30 -48 -62
-63 -69 -23 -13 -30 -12 -70 9 -60 33 -117 111 -183 254 -30 64 -58 117 -64
117 -5 0 -6 -11 -3 -25 8 -30 6 -30 -42 -6 -80 41 -95 38 -235 -33 -177 -91
-213 -90 -282 5 l-37 52 -14 -33 c-13 -29 -12 -40 1 -87 14 -48 14 -55 1 -69
-19 -19 -41 -8 -85 41 -22 26 -31 46 -31 71 0 77 45 120 217 208 121 62 184
118 274 246 62 88 69 92 109 46 50 -56 68 -63 81 -30 8 22 5 43 -11 96 -11 37
-25 68 -30 68 -6 0 -10 -21 -11 -47 0 -43 -1 -45 -11 -23 -41 102 78 345 215
439 82 56 169 66 244 30z m-575 -1422 c82 -54 89 -57 145 -56 50 1 69 -4 137
-39 76 -39 78 -41 50 -48 -47 -12 -161 13 -234 52 -59 31 -210 146 -210 160 0
6 -3 7 112 -69z"/>
<path d="M675 2536 c-99 -59 -164 -227 -136 -350 39 -176 200 -158 290 34 22
47 26 69 26 150 0 105 -14 143 -65 174 -38 22 -68 20 -115 -8z m39 -52 c9 -8
16 -31 16 -50 0 -29 -3 -34 -24 -34 -29 0 -52 -29 -67 -83 -5 -21 -15 -37 -21
-35 -56 19 -17 170 52 205 31 16 26 16 44 -3z"/>
</g>
</svg>
